<?xml version="1.0" encoding="UTF-8"?>
<!DOCTYPE svg PUBLIC "-//W3C//DTD SVG 1.1//EN" "http://www.w3.org/Graphics/SVG/1.1/DTD/svg11.dtd">
<svg version="1.2" width="279.4mm" height="215.9mm" viewBox="0 0 27940 21590" preserveAspectRatio="xMidYMid" fill-rule="evenodd" stroke-width="28.222" stroke-linejoin="round" xmlns="http://www.w3.org/2000/svg" xmlns:ooo="http://xml.openoffice.org/svg/export" xmlns:xlink="http://www.w3.org/1999/xlink" xmlns:presentation="http://sun.com/xmlns/staroffice/presentation" xmlns:smil="http://www.w3.org/2001/SMIL20/" xmlns:anim="urn:oasis:names:tc:opendocument:xmlns:animation:1.0" xml:space="preserve">
 <defs class="ClipPathGroup">
  <clipPath id="presentation_clip_path" clipPathUnits="userSpaceOnUse">
   <rect x="0" y="0" width="27940" height="21590"/>
  </clipPath>
  <clipPath id="presentation_clip_path_shrink" clipPathUnits="userSpaceOnUse">
   <rect x="27" y="21" width="27885" height="21547"/>
  </clipPath>
 </defs>
 <defs class="TextShapeIndex">
  <g ooo:slide="id1" ooo:id-list="id3 id4 id5 id6 id7 id8 id9 id10 id11 id12 id13 id14 id15 id16 id17 id18 id19 id20 id21 id22 id23 id24 id25 id26 id27 id28 id29 id30 id31 id32 id33 id34 id35 id36 id37 id38 id39 id40 id41 id42"/>
 </defs>
 <defs class="EmbeddedBulletChars">
  <g id="bullet-char-template-57356" transform="scale(0.00048828125,-0.00048828125)">
   <path d="M 580,1141 L 1163,571 580,0 -4,571 580,1141 Z"/>
  </g>
  <g id="bullet-char-template-57354" transform="scale(0.00048828125,-0.00048828125)">
   <path d="M 8,1128 L 1137,1128 1137,0 8,0 8,1128 Z"/>
  </g>
  <g id="bullet-char-template-10146" transform="scale(0.00048828125,-0.00048828125)">
   <path d="M 174,0 L 602,739 174,1481 1456,739 174,0 Z M 1358,739 L 309,1346 659,739 1358,739 Z"/>
  </g>
  <g id="bullet-char-template-10132" transform="scale(0.00048828125,-0.00048828125)">
   <path d="M 2015,739 L 1276,0 717,0 1260,543 174,543 174,936 1260,936 717,1481 1274,1481 2015,739 Z"/>
  </g>
  <g id="bullet-char-template-10007" transform="scale(0.00048828125,-0.00048828125)">
   <path d="M 0,-2 C -7,14 -16,27 -25,37 L 356,567 C 262,823 215,952 215,954 215,979 228,992 255,992 264,992 276,990 289,987 310,991 331,999 354,1012 L 381,999 492,748 772,1049 836,1024 860,1049 C 881,1039 901,1025 922,1006 886,937 835,863 770,784 769,783 710,716 594,584 L 774,223 C 774,196 753,168 711,139 L 727,119 C 717,90 699,76 672,76 641,76 570,178 457,381 L 164,-76 C 142,-110 111,-127 72,-127 30,-127 9,-110 8,-76 1,-67 -2,-52 -2,-32 -2,-23 -1,-13 0,-2 Z"/>
  </g>
  <g id="bullet-char-template-10004" transform="scale(0.00048828125,-0.00048828125)">
   <path d="M 285,-33 C 182,-33 111,30 74,156 52,228 41,333 41,471 41,549 55,616 82,672 116,743 169,778 240,778 293,778 328,747 346,684 L 369,508 C 377,444 397,411 428,410 L 1163,1116 C 1174,1127 1196,1133 1229,1133 1271,1133 1292,1118 1292,1087 L 1292,965 C 1292,929 1282,901 1262,881 L 442,47 C 390,-6 338,-33 285,-33 Z"/>
  </g>
  <g id="bullet-char-template-9679" transform="scale(0.00048828125,-0.00048828125)">
   <path d="M 813,0 C 632,0 489,54 383,161 276,268 223,411 223,592 223,773 276,916 383,1023 489,1130 632,1184 813,1184 992,1184 1136,1130 1245,1023 1353,916 1407,772 1407,592 1407,412 1353,268 1245,161 1136,54 992,0 813,0 Z"/>
  </g>
  <g id="bullet-char-template-8226" transform="scale(0.00048828125,-0.00048828125)">
   <path d="M 346,457 C 273,457 209,483 155,535 101,586 74,649 74,723 74,796 101,859 155,911 209,963 273,989 346,989 419,989 480,963 531,910 582,859 608,796 608,723 608,648 583,586 532,535 482,483 420,457 346,457 Z"/>
  </g>
  <g id="bullet-char-template-8211" transform="scale(0.00048828125,-0.00048828125)">
   <path d="M -4,459 L 1135,459 1135,606 -4,606 -4,459 Z"/>
  </g>
  <g id="bullet-char-template-61548" transform="scale(0.00048828125,-0.00048828125)">
   <path d="M 173,740 C 173,903 231,1043 346,1159 462,1274 601,1332 765,1332 928,1332 1067,1274 1183,1159 1299,1043 1357,903 1357,740 1357,577 1299,437 1183,322 1067,206 928,148 765,148 601,148 462,206 346,322 231,437 173,577 173,740 Z"/>
  </g>
 </defs>
 <g>
  <g id="id2" class="Master_Slide">
   <g id="bg-id2" class="Background"/>
   <g id="bo-id2" class="BackgroundObjects"/>
  </g>
 </g>
 <g class="SlideGroup">
  <g>
   <g id="container-id1">
    <g id="id1" class="Slide" clip-path="url(#presentation_clip_path)">
     <g class="Page">
      <g class="com.sun.star.drawing.CustomShape">
       <g id="id3">
        <rect class="BoundingBox" stroke="none" fill="none" x="3855" y="-1" width="17148" height="21593"/>
        <path fill="rgb(60,72,85)" stroke="none" d="M 12429,21590 L 3856,21590 3856,0 21001,0 21001,21590 12429,21590 Z"/>
        <path fill="none" stroke="rgb(52,101,164)" d="M 12429,21590 L 3856,21590 3856,0 21001,0 21001,21590 12429,21590 Z"/>
       </g>
      </g>
      <g class="com.sun.star.drawing.CustomShape">
       <g id="id4">
        <rect class="BoundingBox" stroke="none" fill="none" x="4733" y="576" width="5265" height="978"/>
        <path fill="rgb(84,174,135)" stroke="none" d="M 7365,1447 L 4839,1447 4839,682 9891,682 9891,1447 7365,1447 Z"/>
        <path fill="none" stroke="rgb(215,227,242)" stroke-width="212" stroke-linejoin="bevel" stroke-linecap="round" d="M 7365,1447 L 4839,1447 4839,682 9891,682 9891,1447 7365,1447 Z"/>
       </g>
      </g>
      <g class="com.sun.star.drawing.CustomShape">
       <g id="id5">
        <rect class="BoundingBox" stroke="none" fill="none" x="4732" y="1850" width="3020" height="978"/>
        <path fill="rgb(65,25,13)" stroke="none" d="M 6242,2721 L 4838,2721 4838,1956 7645,1956 7645,2721 6242,2721 Z"/>
        <path fill="none" stroke="rgb(215,227,242)" stroke-width="212" stroke-linejoin="bevel" stroke-linecap="round" d="M 6242,2721 L 4838,2721 4838,1956 7645,1956 7645,2721 6242,2721 Z"/>
       </g>
      </g>
      <g class="com.sun.star.drawing.CustomShape">
       <g id="id6">
        <rect class="BoundingBox" stroke="none" fill="none" x="7819" y="1850" width="2179" height="978"/>
        <path fill="rgb(65,25,13)" stroke="none" d="M 8908,2721 L 7925,2721 7925,1956 9891,1956 9891,2721 8908,2721 Z"/>
        <path fill="none" stroke="rgb(215,227,242)" stroke-width="212" stroke-linejoin="bevel" stroke-linecap="round" d="M 8908,2721 L 7925,2721 7925,1956 9891,1956 9891,2721 8908,2721 Z"/>
       </g>
      </g>
      <g class="com.sun.star.drawing.CustomShape">
       <g id="id7">
        <rect class="BoundingBox" stroke="none" fill="none" x="10064" y="1850" width="6108" height="978"/>
        <path fill="rgb(168,200,233)" stroke="none" d="M 13118,2721 L 10170,2721 10170,1956 16065,1956 16065,2721 13118,2721 Z"/>
        <path fill="none" stroke="rgb(215,227,242)" stroke-width="212" stroke-linejoin="bevel" stroke-linecap="round" d="M 13118,2721 L 10170,2721 10170,1956 16065,1956 16065,2721 13118,2721 Z"/>
       </g>
      </g>
      <g class="com.sun.star.drawing.CustomShape">
       <g id="id8">
        <rect class="BoundingBox" stroke="none" fill="none" x="4731" y="2871" width="1336" height="977"/>
        <path fill="rgb(60,72,85)" stroke="none" d="M 5399,3741 L 4837,3741 4837,2977 5960,2977 5960,3741 5399,3741 Z"/>
        <path fill="none" stroke="rgb(215,227,242)" stroke-width="212" stroke-linejoin="bevel" stroke-linecap="round" d="M 5399,3741 L 4837,3741 4837,2977 5960,2977 5960,3741 5399,3741 Z"/>
       </g>
      </g>
      <g class="com.sun.star.drawing.CustomShape">
       <g id="id9">
        <rect class="BoundingBox" stroke="none" fill="none" x="4731" y="12300" width="1336" height="977"/>
        <path fill="rgb(60,72,85)" stroke="none" d="M 5399,13170 L 4837,13170 4837,12406 5960,12406 5960,13170 5399,13170 Z"/>
        <path fill="none" stroke="rgb(215,227,242)" stroke-width="212" stroke-linejoin="bevel" stroke-linecap="round" d="M 5399,13170 L 4837,13170 4837,12406 5960,12406 5960,13170 5399,13170 Z"/>
       </g>
      </g>
      <g class="com.sun.star.drawing.CustomShape">
       <g id="id10">
        <rect class="BoundingBox" stroke="none" fill="none" x="6651" y="4704" width="4705" height="977"/>
        <path fill="rgb(52,101,164)" stroke="none" d="M 9003,5574 L 6757,5574 6757,4810 11249,4810 11249,5574 9003,5574 Z"/>
        <path fill="none" stroke="rgb(215,227,242)" stroke-width="212" stroke-linejoin="bevel" stroke-linecap="round" d="M 9003,5574 L 6757,5574 6757,4810 11249,4810 11249,5574 9003,5574 Z"/>
       </g>
      </g>
      <g class="com.sun.star.drawing.CustomShape">
       <g id="id11">
        <rect class="BoundingBox" stroke="none" fill="none" x="11423" y="4704" width="3862" height="977"/>
        <path fill="rgb(168,200,233)" stroke="none" d="M 13354,5574 L 11529,5574 11529,4810 15178,4810 15178,5574 13354,5574 Z"/>
        <path fill="none" stroke="rgb(215,227,242)" stroke-width="212" stroke-linejoin="bevel" stroke-linecap="round" d="M 13354,5574 L 11529,5574 11529,4810 15178,4810 15178,5574 13354,5574 Z"/>
       </g>
      </g>
      <g class="com.sun.star.drawing.CustomShape">
       <g id="id12">
        <rect class="BoundingBox" stroke="none" fill="none" x="15353" y="4704" width="1337" height="977"/>
        <path fill="rgb(60,72,85)" stroke="none" d="M 16021,5574 L 15459,5574 15459,4810 16583,4810 16583,5574 16021,5574 Z"/>
        <path fill="none" stroke="rgb(215,227,242)" stroke-width="212" stroke-linejoin="bevel" stroke-linecap="round" d="M 16021,5574 L 15459,5574 15459,4810 16583,4810 16583,5574 16021,5574 Z"/>
       </g>
      </g>
      <g class="com.sun.star.drawing.CustomShape">
       <g id="id13">
        <rect class="BoundingBox" stroke="none" fill="none" x="6652" y="5722" width="4143" height="978"/>
        <path fill="rgb(52,101,164)" stroke="none" d="M 8723,6593 L 6758,6593 6758,5828 10688,5828 10688,6593 8723,6593 Z"/>
        <path fill="none" stroke="rgb(215,227,242)" stroke-width="212" stroke-linejoin="bevel" stroke-linecap="round" d="M 8723,6593 L 6758,6593 6758,5828 10688,5828 10688,6593 8723,6593 Z"/>
       </g>
      </g>
      <g class="com.sun.star.drawing.CustomShape">
       <g id="id14">
        <rect class="BoundingBox" stroke="none" fill="none" x="10861" y="5722" width="3582" height="978"/>
        <path fill="rgb(168,200,233)" stroke="none" d="M 12652,6593 L 10967,6593 10967,5828 14336,5828 14336,6593 12652,6593 Z"/>
        <path fill="none" stroke="rgb(215,227,242)" stroke-width="212" stroke-linejoin="bevel" stroke-linecap="round" d="M 12652,6593 L 10967,6593 10967,5828 14336,5828 14336,6593 12652,6593 Z"/>
       </g>
      </g>
      <g class="com.sun.star.drawing.CustomShape">
       <g id="id15">
        <rect class="BoundingBox" stroke="none" fill="none" x="14510" y="5722" width="1337" height="978"/>
        <path fill="rgb(60,72,85)" stroke="none" d="M 15178,6593 L 14616,6593 14616,5828 15740,5828 15740,6593 15178,6593 Z"/>
        <path fill="none" stroke="rgb(215,227,242)" stroke-width="212" stroke-linejoin="bevel" stroke-linecap="round" d="M 15178,6593 L 14616,6593 14616,5828 15740,5828 15740,6593 15178,6593 Z"/>
       </g>
      </g>
      <g class="com.sun.star.drawing.CustomShape">
       <g id="id16">
        <rect class="BoundingBox" stroke="none" fill="none" x="6650" y="6741" width="4704" height="978"/>
        <path fill="rgb(168,200,233)" stroke="none" d="M 9002,7612 L 6756,7612 6756,6847 11247,6847 11247,7612 9002,7612 Z"/>
        <path fill="none" stroke="rgb(215,227,242)" stroke-width="212" stroke-linejoin="bevel" stroke-linecap="round" d="M 9002,7612 L 6756,7612 6756,6847 11247,6847 11247,7612 9002,7612 Z"/>
       </g>
      </g>
      <g class="com.sun.star.drawing.CustomShape">
       <g id="id17">
        <rect class="BoundingBox" stroke="none" fill="none" x="11423" y="6741" width="1336" height="978"/>
        <path fill="rgb(60,72,85)" stroke="none" d="M 12091,7612 L 11529,7612 11529,6847 12652,6847 12652,7612 12091,7612 Z"/>
        <path fill="none" stroke="rgb(215,227,242)" stroke-width="212" stroke-linejoin="bevel" stroke-linecap="round" d="M 12091,7612 L 11529,7612 11529,6847 12652,6847 12652,7612 12091,7612 Z"/>
       </g>
      </g>
      <g class="com.sun.star.drawing.CustomShape">
       <g id="id18">
        <rect class="BoundingBox" stroke="none" fill="none" x="6696" y="8220" width="4705" height="978"/>
        <path fill="rgb(52,101,164)" stroke="none" d="M 9048,9091 L 6802,9091 6802,8326 11294,8326 11294,9091 9048,9091 Z"/>
        <path fill="none" stroke="rgb(215,227,242)" stroke-width="212" stroke-linejoin="bevel" stroke-linecap="round" d="M 9048,9091 L 6802,9091 6802,8326 11294,8326 11294,9091 9048,9091 Z"/>
       </g>
      </g>
      <g class="com.sun.star.drawing.CustomShape">
       <g id="id19">
        <rect class="BoundingBox" stroke="none" fill="none" x="11468" y="8220" width="3862" height="978"/>
        <path fill="rgb(168,200,233)" stroke="none" d="M 13399,9091 L 11574,9091 11574,8326 15223,8326 15223,9091 13399,9091 Z"/>
        <path fill="none" stroke="rgb(215,227,242)" stroke-width="212" stroke-linejoin="bevel" stroke-linecap="round" d="M 13399,9091 L 11574,9091 11574,8326 15223,8326 15223,9091 13399,9091 Z"/>
       </g>
      </g>
      <g class="com.sun.star.drawing.CustomShape">
       <g id="id20">
        <rect class="BoundingBox" stroke="none" fill="none" x="8381" y="9328" width="3862" height="978"/>
        <path fill="rgb(168,200,233)" stroke="none" d="M 10312,10199 L 8487,10199 8487,9434 12136,9434 12136,10199 10312,10199 Z"/>
        <path fill="none" stroke="rgb(215,227,242)" stroke-width="212" stroke-linejoin="bevel" stroke-linecap="round" d="M 10312,10199 L 8487,10199 8487,9434 12136,9434 12136,10199 10312,10199 Z"/>
       </g>
      </g>
      <g class="com.sun.star.drawing.CustomShape">
       <g id="id21">
        <rect class="BoundingBox" stroke="none" fill="none" x="8381" y="10347" width="3862" height="978"/>
        <path fill="rgb(168,200,233)" stroke="none" d="M 10312,11218 L 8487,11218 8487,10453 12136,10453 12136,11218 10312,11218 Z"/>
        <path fill="none" stroke="rgb(215,227,242)" stroke-width="212" stroke-linejoin="bevel" stroke-linecap="round" d="M 10312,11218 L 8487,11218 8487,10453 12136,10453 12136,11218 10312,11218 Z"/>
       </g>
      </g>
      <g class="com.sun.star.drawing.CustomShape">
       <g id="id22">
        <rect class="BoundingBox" stroke="none" fill="none" x="6695" y="11279" width="1336" height="978"/>
        <path fill="rgb(60,72,85)" stroke="none" d="M 7363,12150 L 6801,12150 6801,11385 7924,11385 7924,12150 7363,12150 Z"/>
        <path fill="none" stroke="rgb(215,227,242)" stroke-width="212" stroke-linejoin="bevel" stroke-linecap="round" d="M 7363,12150 L 6801,12150 6801,11385 7924,11385 7924,12150 7363,12150 Z"/>
       </g>
      </g>
      <g class="com.sun.star.drawing.CustomShape">
       <g id="id23">
        <rect class="BoundingBox" stroke="none" fill="none" x="4733" y="14592" width="5265" height="979"/>
        <path fill="rgb(84,174,135)" stroke="none" d="M 7365,15464 L 4839,15464 4839,14698 9891,14698 9891,15464 7365,15464 Z"/>
        <path fill="none" stroke="rgb(215,227,242)" stroke-width="212" stroke-linejoin="bevel" stroke-linecap="round" d="M 7365,15464 L 4839,15464 4839,14698 9891,14698 9891,15464 7365,15464 Z"/>
       </g>
      </g>
      <g class="com.sun.star.drawing.CustomShape">
       <g id="id24">
        <rect class="BoundingBox" stroke="none" fill="none" x="4732" y="15865" width="3020" height="978"/>
        <path fill="rgb(65,25,13)" stroke="none" d="M 6242,16736 L 4838,16736 4838,15971 7645,15971 7645,16736 6242,16736 Z"/>
        <path fill="none" stroke="rgb(215,227,242)" stroke-width="212" stroke-linejoin="bevel" stroke-linecap="round" d="M 6242,16736 L 4838,16736 4838,15971 7645,15971 7645,16736 6242,16736 Z"/>
       </g>
      </g>
      <g class="com.sun.star.drawing.CustomShape">
       <g id="id25">
        <rect class="BoundingBox" stroke="none" fill="none" x="7818" y="15865" width="1898" height="978"/>
        <path fill="rgb(65,25,13)" stroke="none" d="M 8767,16736 L 7924,16736 7924,15971 9609,15971 9609,16736 8767,16736 Z"/>
        <path fill="none" stroke="rgb(215,227,242)" stroke-width="212" stroke-linejoin="bevel" stroke-linecap="round" d="M 8767,16736 L 7924,16736 7924,15971 9609,15971 9609,16736 8767,16736 Z"/>
       </g>
      </g>
      <g class="com.sun.star.drawing.CustomShape">
       <g id="id26">
        <rect class="BoundingBox" stroke="none" fill="none" x="9784" y="15865" width="6950" height="978"/>
        <path fill="rgb(168,200,233)" stroke="none" d="M 13259,16736 L 9890,16736 9890,15971 16627,15971 16627,16736 13259,16736 Z"/>
        <path fill="none" stroke="rgb(215,227,242)" stroke-width="212" stroke-linejoin="bevel" stroke-linecap="round" d="M 13259,16736 L 9890,16736 9890,15971 16627,15971 16627,16736 13259,16736 Z"/>
       </g>
      </g>
      <g class="com.sun.star.drawing.CustomShape">
       <g id="id27">
        <rect class="BoundingBox" stroke="none" fill="none" x="4733" y="16886" width="1336" height="977"/>
        <path fill="rgb(60,72,85)" stroke="none" d="M 5401,17756 L 4839,17756 4839,16992 5962,16992 5962,17756 5401,17756 Z"/>
        <path fill="none" stroke="rgb(215,227,242)" stroke-width="212" stroke-linejoin="bevel" stroke-linecap="round" d="M 5401,17756 L 4839,17756 4839,16992 5962,16992 5962,17756 5401,17756 Z"/>
       </g>
      </g>
      <g class="com.sun.star.drawing.CustomShape">
       <g id="id28">
        <rect class="BoundingBox" stroke="none" fill="none" x="4703" y="20130" width="1336" height="978"/>
        <path fill="rgb(60,72,85)" stroke="none" d="M 5371,21001 L 4809,21001 4809,20236 5932,20236 5932,21001 5371,21001 Z"/>
        <path fill="none" stroke="rgb(215,227,242)" stroke-width="212" stroke-linejoin="bevel" stroke-linecap="round" d="M 5371,21001 L 4809,21001 4809,20236 5932,20236 5932,21001 5371,21001 Z"/>
       </g>
      </g>
      <g class="com.sun.star.drawing.CustomShape">
       <g id="id29">
        <rect class="BoundingBox" stroke="none" fill="none" x="6667" y="19110" width="4705" height="978"/>
        <path fill="rgb(52,101,164)" stroke="none" d="M 9019,19981 L 6773,19981 6773,19216 11265,19216 11265,19981 9019,19981 Z"/>
        <path fill="none" stroke="rgb(215,227,242)" stroke-width="212" stroke-linejoin="bevel" stroke-linecap="round" d="M 9019,19981 L 6773,19981 6773,19216 11265,19216 11265,19981 9019,19981 Z"/>
       </g>
      </g>
      <g class="com.sun.star.drawing.CustomShape">
       <g id="id30">
        <rect class="BoundingBox" stroke="none" fill="none" x="11439" y="19110" width="3862" height="978"/>
        <path fill="rgb(168,200,233)" stroke="none" d="M 13370,19981 L 11545,19981 11545,19216 15194,19216 15194,19981 13370,19981 Z"/>
        <path fill="none" stroke="rgb(215,227,242)" stroke-width="212" stroke-linejoin="bevel" stroke-linecap="round" d="M 13370,19981 L 11545,19981 11545,19216 15194,19216 15194,19981 13370,19981 Z"/>
       </g>
      </g>
      <g class="com.sun.star.drawing.CustomShape">
       <g id="id31">
        <rect class="BoundingBox" stroke="none" fill="none" x="15369" y="19111" width="1337" height="978"/>
        <path fill="rgb(60,72,85)" stroke="none" d="M 16037,19982 L 15475,19982 15475,19217 16599,19217 16599,19982 16037,19982 Z"/>
        <path fill="none" stroke="rgb(215,227,242)" stroke-width="212" stroke-linejoin="bevel" stroke-linecap="round" d="M 16037,19982 L 15475,19982 15475,19217 16599,19217 16599,19982 16037,19982 Z"/>
       </g>
      </g>
      <g class="com.sun.star.drawing.CustomShape">
       <g id="id32">
        <rect class="BoundingBox" stroke="none" fill="none" x="681" y="1293" width="1968" height="2250"/>
        <path fill="rgb(84,174,135)" stroke="none" d="M 2647,2405 L 682,3541 682,1294 2647,2405 Z"/>
        <path fill="none" stroke="rgb(50,130,96)" d="M 2647,2405 L 682,3541 682,1294 2647,2405 Z"/>
       </g>
      </g>
      <g class="com.sun.star.drawing.CustomShape">
       <g id="id33">
        <rect class="BoundingBox" stroke="none" fill="none" x="6521" y="17816" width="850" height="1166"/>
        <path fill="rgb(114,159,207)" stroke="none" d="M 6786,17922 L 7263,17922 7104,18875 6627,18875 6786,17922 Z"/>
        <path fill="none" stroke="rgb(215,227,242)" stroke-width="212" stroke-linejoin="bevel" d="M 6786,17922 L 7263,17922 7104,18875 6627,18875 6786,17922 Z"/>
       </g>
      </g>
      <g class="com.sun.star.drawing.CustomShape">
       <g id="id34">
        <rect class="BoundingBox" stroke="none" fill="none" x="7256" y="17816" width="849" height="1166"/>
        <path fill="rgb(114,159,207)" stroke="none" d="M 7521,17922 L 7998,17922 7839,18875 7362,18875 7521,17922 Z"/>
        <path fill="none" stroke="rgb(215,227,242)" stroke-width="212" stroke-linejoin="bevel" d="M 7521,17922 L 7998,17922 7839,18875 7362,18875 7521,17922 Z"/>
       </g>
      </g>
      <g class="com.sun.star.drawing.CustomShape">
       <g id="id35">
        <rect class="BoundingBox" stroke="none" fill="none" x="8138" y="18002" width="2607" height="978"/>
        <path fill="rgb(154,173,194)" stroke="none" d="M 9441,18873 L 8244,18873 8244,18108 10638,18108 10638,18873 9441,18873 Z"/>
        <path fill="none" stroke="rgb(215,227,242)" stroke-width="212" stroke-linejoin="bevel" stroke-linecap="round" d="M 9441,18873 L 8244,18873 8244,18108 10638,18108 10638,18873 9441,18873 Z"/>
       </g>
      </g>
      <g class="com.sun.star.drawing.CustomShape">
       <g id="id36">
        <rect class="BoundingBox" stroke="none" fill="none" x="10777" y="18002" width="1972" height="978"/>
        <path fill="rgb(154,173,194)" stroke="none" d="M 11763,18873 L 10883,18873 10883,18108 12642,18108 12642,18873 11763,18873 Z"/>
        <path fill="none" stroke="rgb(215,227,242)" stroke-width="212" stroke-linejoin="bevel" stroke-linecap="round" d="M 11763,18873 L 10883,18873 10883,18108 12642,18108 12642,18873 11763,18873 Z"/>
       </g>
      </g>
      <g class="com.sun.star.drawing.CustomShape">
       <g id="id37">
        <rect class="BoundingBox" stroke="none" fill="none" x="6550" y="3434" width="850" height="1166"/>
        <path fill="rgb(114,159,207)" stroke="none" d="M 6815,3540 L 7292,3540 7133,4493 6656,4493 6815,3540 Z"/>
        <path fill="none" stroke="rgb(215,227,242)" stroke-width="212" stroke-linejoin="bevel" d="M 6815,3540 L 7292,3540 7133,4493 6656,4493 6815,3540 Z"/>
       </g>
      </g>
      <g class="com.sun.star.drawing.CustomShape">
       <g id="id38">
        <rect class="BoundingBox" stroke="none" fill="none" x="7285" y="3434" width="850" height="1166"/>
        <path fill="rgb(114,159,207)" stroke="none" d="M 7550,3540 L 8027,3540 7868,4493 7391,4493 7550,3540 Z"/>
        <path fill="none" stroke="rgb(215,227,242)" stroke-width="212" stroke-linejoin="bevel" d="M 7550,3540 L 8027,3540 7868,4493 7391,4493 7550,3540 Z"/>
       </g>
      </g>
      <g class="com.sun.star.drawing.CustomShape">
       <g id="id39">
        <rect class="BoundingBox" stroke="none" fill="none" x="8167" y="3620" width="2607" height="978"/>
        <path fill="rgb(154,173,194)" stroke="none" d="M 9470,4491 L 8273,4491 8273,3726 10667,3726 10667,4491 9470,4491 Z"/>
        <path fill="none" stroke="rgb(215,227,242)" stroke-width="212" stroke-linejoin="bevel" stroke-linecap="round" d="M 9470,4491 L 8273,4491 8273,3726 10667,3726 10667,4491 9470,4491 Z"/>
       </g>
      </g>
      <g class="com.sun.star.drawing.CustomShape">
       <g id="id40">
        <rect class="BoundingBox" stroke="none" fill="none" x="10806" y="3620" width="1972" height="978"/>
        <path fill="rgb(154,173,194)" stroke="none" d="M 11792,4491 L 10912,4491 10912,3726 12671,3726 12671,4491 11792,4491 Z"/>
        <path fill="none" stroke="rgb(215,227,242)" stroke-width="212" stroke-linejoin="bevel" stroke-linecap="round" d="M 11792,4491 L 10912,4491 10912,3726 12671,3726 12671,4491 11792,4491 Z"/>
       </g>
      </g>
      <g class="com.sun.star.drawing.CustomShape">
       <g id="id41">
        <rect class="BoundingBox" stroke="none" fill="none" x="3220" y="-1" width="638" height="21593"/>
        <path fill="rgb(215,227,242)" stroke="none" d="M 3539,21590 L 3221,21590 3221,0 3856,0 3856,21590 3539,21590 Z"/>
        <path fill="none" stroke="rgb(52,101,164)" d="M 3539,21590 L 3221,21590 3221,0 3856,0 3856,21590 3539,21590 Z"/>
       </g>
      </g>
      <g class="com.sun.star.drawing.CustomShape">
       <g id="id42">
        <rect class="BoundingBox" stroke="none" fill="none" x="16326" y="4262" width="11253" height="15698"/>
        <path fill="rgb(255,56,56)" stroke="none" d="M 22642,13512 C 22633,13679 22624,13845 22608,14011 22580,14138 22552,14264 22520,14393 22476,14492 22433,14591 22382,14695 22326,14782 22270,14868 22207,14960 22113,15080 22019,15201 21925,15327 21831,15422 21737,15518 21644,15620 21572,15724 21499,15829 21427,15940 21399,16094 21371,16248 21343,16408 21352,16550 21362,16692 21371,16840 21393,16975 21415,17111 21440,17249 21468,17379 21496,17508 21525,17641 21550,17767 21575,17893 21603,18026 21628,18084 21653,18143 21678,18204 21706,18278 21734,18352 21766,18429 21788,18494 21809,18559 21831,18623 21841,18651 21850,18679 21863,18707 21913,18676 21963,18645 22019,18608 22082,18593 22144,18577 22207,18556 22270,18549 22332,18543 22398,18537 22448,18537 22498,18537 22555,18537 22614,18540 22674,18543 22733,18549 22808,18559 22883,18568 22965,18580 23031,18590 23096,18599 23162,18608 23190,18611 23218,18614 23247,18623 23209,18571 23171,18519 23131,18466 23103,18402 23074,18337 23040,18269 23015,18198 22990,18127 22965,18057 22943,17992 22921,17927 22899,17856 22821,17662 22743,17468 22664,17274 22633,17132 22602,16991 22570,16843 22573,16738 22577,16633 22583,16522 22611,16442 22639,16362 22674,16276 22721,16208 22768,16140 22815,16066 22924,15906 23034,15746 23146,15580 23250,15425 23353,15271 23463,15117 23544,14960 23626,14803 23713,14640 23760,14464 23807,14289 23854,14110 23854,14042 23854,13974 23854,13900 23854,13823 23854,13746 23854,13669 23854,13589 23854,13509 23854,13423 23854,13340 23854,13257 23854,13170 23832,13152 23810,13133 23788,13109 23773,13090 23757,13072 23735,13053 23723,13041 23710,13029 23694,13013 23691,13010 23688,13007 23682,13001 23579,13025 23475,13050 23372,13081 23281,13118 23190,13155 23093,13192 23012,13238 22930,13284 22849,13334 22780,13392 22711,13451 22642,13512 L 22642,13512 Z M 24806,12831 C 24656,12847 24505,12862 24355,12878 24280,12884 24205,12890 24123,12902 24095,12905 24067,12908 24036,12911 24033,12911 24029,12911 24026,12915 24001,12915 23976,12915 23945,12915 23914,12915 23882,12915 23851,12915 23820,12915 23788,12915 23757,12915 23732,12915 23707,12915 23682,12915 23682,12918 23682,12921 23682,12927 23682,12936 23682,12945 23682,12958 23682,12967 23682,12976 23682,12985 23682,12989 23682,12992 23682,13001 23685,13004 23688,13007 23694,13013 23707,13025 23719,13038 23735,13053 23751,13072 23766,13090 23788,13109 23810,13127 23832,13146 23854,13170 23910,13241 23967,13312 24026,13389 24061,13481 24095,13574 24130,13669 24139,13793 24148,13916 24158,14039 24139,14205 24120,14372 24095,14544 24045,14766 23995,14988 23939,15216 23910,15321 23882,15425 23848,15533 23810,15638 23773,15743 23732,15854 23701,15958 23669,16063 23632,16171 23619,16279 23607,16387 23591,16495 23607,16713 23622,16932 23641,17154 23694,17345 23748,17536 23804,17730 23895,17909 23986,18087 24076,18269 24205,18448 24333,18626 24468,18808 24637,18999 24806,19190 24978,19387 25013,19403 25047,19418 25081,19440 25128,19477 25175,19514 25229,19557 25269,19594 25310,19631 25357,19674 25376,19692 25395,19711 25413,19729 25485,19665 25557,19600 25633,19529 25720,19492 25808,19455 25896,19418 25989,19400 26083,19381 26177,19357 26268,19341 26359,19326 26453,19304 26472,19304 26490,19304 26512,19304 26531,19307 26550,19310 26569,19314 26581,19320 26594,19326 26606,19338 26609,19354 26613,19369 26622,19387 26506,19307 26390,19227 26274,19147 26187,19076 26099,19005 26005,18928 25933,18864 25861,18799 25783,18728 25717,18667 25651,18605 25586,18537 25460,18392 25335,18248 25204,18097 25107,17955 25009,17813 24909,17668 24850,17511 24790,17354 24728,17191 24715,17000 24703,16809 24684,16618 24725,16377 24765,16137 24806,15897 24865,15669 24925,15441 24991,15213 25038,15037 25085,14862 25138,14680 25169,14541 25200,14403 25238,14258 25257,14141 25276,14024 25301,13907 25307,13805 25313,13703 25323,13595 25316,13515 25310,13435 25304,13355 25288,13287 25272,13220 25257,13149 25232,13090 25207,13032 25179,12973 25141,12927 25103,12881 25066,12831 25044,12831 25022,12831 25000,12831 24978,12831 24956,12831 24934,12831 24912,12831 24890,12831 24869,12831 24850,12831 24831,12831 24806,12831 L 24806,12831 Z M 26882,8574 C 26841,8552 26800,8531 26753,8509 26716,8490 26678,8472 26634,8453 26600,8441 26566,8429 26528,8413 26503,8410 26478,8407 26450,8401 26318,8346 26187,8290 26052,8235 25930,8148 25808,8062 25679,7976 25586,7847 25492,7717 25391,7588 25341,7406 25291,7224 25241,7039 25241,6876 25241,6713 25241,6546 25241,6463 25241,6380 25241,6294 25241,6263 25241,6232 25241,6201 25241,6198 25241,6195 25241,6189 25182,5992 25122,5795 25063,5594 24941,5471 24818,5348 24696,5219 24521,5163 24346,5108 24167,5049 23948,5058 23729,5068 23510,5083 23359,5114 23209,5145 23056,5179 22980,5194 22905,5209 22824,5228 22796,5234 22768,5240 22736,5246 22733,5246 22730,5246 22727,5249 22620,5259 22514,5268 22404,5277 22314,5268 22223,5259 22126,5246 22026,5212 21925,5179 21825,5145 21697,5080 21568,5015 21440,4951 21265,4852 21089,4753 20911,4655 20792,4602 20673,4550 20548,4492 20416,4498 20285,4504 20153,4516 20034,4581 19915,4646 19790,4713 19702,4837 19615,4960 19527,5083 19439,5283 19352,5484 19258,5684 19186,5819 19114,5955 19038,6097 18963,6189 18888,6281 18813,6380 18719,6448 18625,6516 18531,6590 18403,6654 18274,6719 18140,6787 18008,6851 17877,6916 17739,6981 17670,7015 17601,7049 17532,7083 17507,7095 17482,7107 17457,7119 17454,7119 17451,7119 17448,7126 17319,7237 17191,7347 17060,7461 16984,7588 16909,7714 16831,7847 16815,7994 16800,8142 16778,8296 16828,8472 16878,8648 16931,8829 16972,8977 17013,9125 17060,9279 17063,9455 17066,9630 17069,9806 17035,9982 17000,10157 16963,10336 16894,10484 16825,10632 16756,10786 16690,10937 16624,11088 16556,11242 16562,11386 16568,11531 16581,11679 16653,11802 16725,11926 16803,12055 16931,12144 17060,12234 17188,12323 17222,12326 17257,12329 17294,12335 17351,12345 17407,12354 17470,12363 17536,12372 17601,12382 17673,12391 17742,12394 17811,12397 17880,12406 18002,12419 18124,12431 18249,12443 18397,12486 18544,12529 18691,12576 18854,12662 19017,12748 19182,12838 19355,12976 19527,13115 19699,13260 19743,13318 19787,13377 19831,13438 19878,13500 19925,13562 19978,13629 20037,13706 20097,13783 20159,13867 20235,13974 20310,14082 20391,14193 20507,14267 20623,14341 20745,14418 20898,14433 21052,14449 21211,14470 21368,14433 21525,14396 21681,14359 21797,14276 21913,14193 22035,14110 22060,14085 22085,14061 22113,14030 22148,13996 22182,13962 22220,13928 22257,13888 22295,13848 22339,13808 22382,13768 22426,13728 22470,13685 22539,13626 22608,13568 22677,13506 22758,13460 22840,13414 22921,13364 23012,13327 23103,13290 23200,13253 23303,13229 23406,13204 23510,13173 23510,13170 23510,13167 23510,13158 23510,13149 23510,13139 23510,13130 23510,13121 23510,13112 23510,13099 23510,13096 23510,13093 23510,13087 23535,13087 23560,13087 23585,13087 23616,13087 23647,13087 23679,13087 23710,13087 23741,13087 23773,13087 23798,13087 23823,13087 23854,13087 24001,13072 24148,13056 24302,13038 24377,13032 24452,13025 24534,13013 24562,13010 24590,13007 24621,13004 24624,13004 24627,13004 24634,13004 24653,13004 24671,13004 24696,13004 24718,13004 24740,13004 24762,13004 24784,13004 24806,13004 24828,13004 24850,13004 24872,13004 24894,13004 24909,13004 24925,13004 24944,13004 24953,13004 24962,13004 24978,13004 24988,13004 24997,13004 25013,13004 25028,13004 25044,13004 25066,13004 25200,12927 25335,12850 25470,12767 25567,12668 25664,12570 25767,12471 25827,12360 25886,12249 25952,12138 25974,12030 25996,11923 26018,11809 26033,11608 26049,11408 26068,11208 26143,11066 26218,10924 26296,10776 26406,10672 26515,10567 26625,10456 26741,10370 26857,10284 26973,10191 27067,10065 27161,9938 27261,9806 27289,9655 27317,9504 27348,9350 27308,9205 27267,9060 27223,8909 27110,8799 26998,8688 26882,8574 L 26882,8574 Z M 22154,13170 C 21809,13189 21465,13207 21121,13232 20795,13161 20469,13090 20141,13016 19846,12865 19552,12714 19255,12560 19007,12342 18760,12123 18512,11901 18331,11624 18149,11346 17961,11066 17861,10746 17761,10425 17655,10102 17645,9754 17636,9405 17620,9057 17695,8734 17770,8410 17849,8081 18002,7794 18155,7508 18312,7215 18534,6978 18757,6741 18985,6497 19270,6322 19555,6146 19840,5970 20178,5872 20516,5773 20854,5671 21196,5662 21537,5653 21878,5638 22201,5712 22523,5785 22849,5859 23140,6007 23431,6155 23723,6309 23967,6525 24211,6741 24458,6959 24643,7230 24828,7501 25016,7779 25128,8099 25241,8420 25357,8740 25363,9088 25370,9436 25382,9784 25304,10108 25225,10431 25141,10758 24984,11044 24828,11331 24665,11624 24440,11861 24214,12098 23986,12342 23704,12517 23422,12693 23137,12868 22811,12967 22486,13066 22154,13170 L 22154,13170 Z"/>
        <path fill="none" stroke="rgb(191,0,65)" stroke-width="459" stroke-linejoin="round" d="M 22642,13512 C 22633,13679 22624,13845 22608,14011 22580,14138 22552,14264 22520,14393 22476,14492 22433,14591 22382,14695 22326,14782 22270,14868 22207,14960 22113,15080 22019,15201 21925,15327 21831,15422 21737,15518 21644,15620 21572,15724 21499,15829 21427,15940 21399,16094 21371,16248 21343,16408 21352,16550 21362,16692 21371,16840 21393,16975 21415,17111 21440,17249 21468,17379 21496,17508 21525,17641 21550,17767 21575,17893 21603,18026 21628,18084 21653,18143 21678,18204 21706,18278 21734,18352 21766,18429 21788,18494 21809,18559 21831,18623 21841,18651 21850,18679 21863,18707 21913,18676 21963,18645 22019,18608 22082,18593 22144,18577 22207,18556 22270,18549 22332,18543 22398,18537 L 22555,18537 C 22614,18540 22674,18543 22733,18549 22808,18559 22883,18568 22965,18580 23031,18590 23096,18599 23162,18608 23190,18611 23218,18614 23247,18623 23209,18571 23171,18519 23131,18466 23103,18402 23074,18337 23040,18269 23015,18198 22990,18127 22965,18057 22943,17992 22921,17927 22899,17856 22821,17662 22743,17468 22664,17274 22633,17132 22602,16991 22570,16843 22573,16738 22577,16633 22583,16522 22611,16442 22639,16362 22674,16276 22721,16208 22768,16140 22815,16066 22924,15906 23034,15746 23146,15580 23250,15425 23353,15271 23463,15117 23544,14960 23626,14803 23713,14640 23760,14464 23807,14289 23854,14110 L 23854,13900 23854,13669 23854,13423 23854,13170 C 23832,13152 23810,13133 23788,13109 23773,13090 23757,13072 23735,13053 23723,13041 23710,13029 23694,13013 L 23682,13001 C 23579,13025 23475,13050 23372,13081 23281,13118 23190,13155 23093,13192 23012,13238 22930,13284 22849,13334 22780,13392 22711,13451 22642,13512 Z"/>
        <path fill="none" stroke="rgb(191,0,65)" stroke-width="459" stroke-linejoin="round" d="M 24806,12831 C 24656,12847 24505,12862 24355,12878 24280,12884 24205,12890 24123,12902 24095,12905 24067,12908 24036,12911 24033,12911 24029,12911 24026,12915 L 23945,12915 23851,12915 23757,12915 23682,12915 23682,12927 23682,12958 23682,12985 23682,13001 23694,13013 C 23707,13025 23719,13038 23735,13053 23751,13072 23766,13090 23788,13109 23810,13127 23832,13146 23854,13170 23910,13241 23967,13312 24026,13389 24061,13481 24095,13574 24130,13669 24139,13793 24148,13916 24158,14039 24139,14205 24120,14372 24095,14544 24045,14766 23995,14988 23939,15216 23910,15321 23882,15425 23848,15533 23810,15638 23773,15743 23732,15854 23701,15958 23669,16063 23632,16171 23619,16279 23607,16387 23591,16495 23607,16713 23622,16932 23641,17154 23694,17345 23748,17536 23804,17730 23895,17909 23986,18087 24076,18269 24205,18448 24333,18626 24468,18808 24637,18999 24806,19190 24978,19387 25013,19403 25047,19418 25081,19440 25128,19477 25175,19514 25229,19557 25269,19594 25310,19631 25357,19674 25376,19692 25395,19711 25413,19729 25485,19665 25557,19600 25633,19529 25720,19492 25808,19455 25896,19418 25989,19400 26083,19381 26177,19357 26268,19341 26359,19326 26453,19304 L 26512,19304 C 26531,19307 26550,19310 26569,19314 26581,19320 26594,19326 26606,19338 26609,19354 26613,19369 26622,19387 L 26274,19147 C 26187,19076 26099,19005 26005,18928 25933,18864 25861,18799 25783,18728 25717,18667 25651,18605 25586,18537 25460,18392 25335,18248 25204,18097 25107,17955 25009,17813 24909,17668 24850,17511 24790,17354 24728,17191 24715,17000 24703,16809 24684,16618 24725,16377 24765,16137 24806,15897 24865,15669 24925,15441 24991,15213 25038,15037 25085,14862 25138,14680 25169,14541 25200,14403 25238,14258 25257,14141 25276,14024 25301,13907 25307,13805 25313,13703 25323,13595 25316,13515 25310,13435 25304,13355 25288,13287 25272,13220 25257,13149 25232,13090 25207,13032 25179,12973 25141,12927 25103,12881 25066,12831 L 25000,12831 24934,12831 24869,12831 24806,12831 Z"/>
        <path fill="none" stroke="rgb(191,0,65)" stroke-width="459" stroke-linejoin="round" d="M 26882,8574 C 26841,8552 26800,8531 26753,8509 26716,8490 26678,8472 26634,8453 26600,8441 26566,8429 26528,8413 26503,8410 26478,8407 26450,8401 26318,8346 26187,8290 26052,8235 25930,8148 25808,8062 25679,7976 25586,7847 25492,7717 25391,7588 25341,7406 25291,7224 25241,7039 L 25241,6546 25241,6294 25241,6201 25241,6189 C 25182,5992 25122,5795 25063,5594 24941,5471 24818,5348 24696,5219 24521,5163 24346,5108 24167,5049 23948,5058 23729,5068 23510,5083 23359,5114 23209,5145 23056,5179 22980,5194 22905,5209 22824,5228 22796,5234 22768,5240 22736,5246 22733,5246 22730,5246 22727,5249 22620,5259 22514,5268 22404,5277 22314,5268 22223,5259 22126,5246 22026,5212 21925,5179 21825,5145 21697,5080 21568,5015 21440,4951 21265,4852 21089,4753 20911,4655 20792,4602 20673,4550 20548,4492 20416,4498 20285,4504 20153,4516 20034,4581 19915,4646 19790,4713 19702,4837 19615,4960 19527,5083 19439,5283 19352,5484 19258,5684 19186,5819 19114,5955 19038,6097 18963,6189 18888,6281 18813,6380 18719,6448 18625,6516 18531,6590 18403,6654 18274,6719 18140,6787 18008,6851 17877,6916 17739,6981 L 17532,7083 17457,7119 C 17454,7119 17451,7119 17448,7126 17319,7237 17191,7347 17060,7461 16984,7588 16909,7714 16831,7847 16815,7994 16800,8142 16778,8296 16828,8472 16878,8648 16931,8829 16972,8977 17013,9125 17060,9279 17063,9455 17066,9630 17069,9806 17035,9982 17000,10157 16963,10336 16894,10484 16825,10632 16756,10786 16690,10937 16624,11088 16556,11242 16562,11386 16568,11531 16581,11679 16653,11802 16725,11926 16803,12055 16931,12144 17060,12234 17188,12323 17222,12326 17257,12329 17294,12335 17351,12345 17407,12354 17470,12363 17536,12372 17601,12382 17673,12391 17742,12394 17811,12397 17880,12406 18002,12419 18124,12431 18249,12443 18397,12486 18544,12529 18691,12576 18854,12662 19017,12748 19182,12838 19355,12976 19527,13115 19699,13260 19743,13318 19787,13377 19831,13438 19878,13500 19925,13562 19978,13629 20037,13706 20097,13783 20159,13867 20235,13974 20310,14082 20391,14193 20507,14267 20623,14341 20745,14418 20898,14433 21052,14449 21211,14470 21368,14433 21525,14396 21681,14359 21797,14276 21913,14193 22035,14110 22060,14085 22085,14061 22113,14030 22148,13996 22182,13962 22220,13928 22257,13888 22295,13848 22339,13808 22382,13768 22426,13728 22470,13685 22539,13626 22608,13568 22677,13506 22758,13460 22840,13414 22921,13364 23012,13327 23103,13290 23200,13253 23303,13229 23406,13204 23510,13173 L 23510,13158 23510,13130 23510,13099 23510,13087 23585,13087 23679,13087 23773,13087 23854,13087 C 24001,13072 24148,13056 24302,13038 24377,13032 24452,13025 24534,13013 24562,13010 24590,13007 24621,13004 L 24634,13004 24696,13004 24762,13004 24828,13004 24894,13004 24944,13004 24978,13004 25013,13004 25066,13004 C 25200,12927 25335,12850 25470,12767 25567,12668 25664,12570 25767,12471 25827,12360 25886,12249 25952,12138 25974,12030 25996,11923 26018,11809 26033,11608 26049,11408 26068,11208 26143,11066 26218,10924 26296,10776 26406,10672 26515,10567 26625,10456 26741,10370 26857,10284 26973,10191 27067,10065 27161,9938 27261,9806 27289,9655 27317,9504 27348,9350 27308,9205 27267,9060 27223,8909 27110,8799 26998,8688 26882,8574 Z"/>
        <path fill="none" stroke="rgb(191,0,65)" stroke-width="459" stroke-linejoin="round" d="M 22154,13170 C 21809,13189 21465,13207 21121,13232 20795,13161 20469,13090 20141,13016 19846,12865 19552,12714 19255,12560 19007,12342 18760,12123 18512,11901 18331,11624 18149,11346 17961,11066 17861,10746 17761,10425 17655,10102 17645,9754 17636,9405 17620,9057 17695,8734 17770,8410 17849,8081 18002,7794 18155,7508 18312,7215 18534,6978 18757,6741 18985,6497 19270,6322 19555,6146 19840,5970 20178,5872 20516,5773 20854,5671 21196,5662 21537,5653 21878,5638 22201,5712 22523,5785 22849,5859 23140,6007 23431,6155 23723,6309 23967,6525 24211,6741 24458,6959 24643,7230 24828,7501 25016,7779 25128,8099 25241,8420 25357,8740 25363,9088 25370,9436 25382,9784 25304,10108 25225,10431 25141,10758 24984,11044 24828,11331 24665,11624 24440,11861 24214,12098 23986,12342 23704,12517 23422,12693 23137,12868 22811,12967 22486,13066 22154,13170 Z"/>
       </g>
      </g>
     </g>
    </g>
   </g>
  </g>
 </g>
</svg>